<svg width="815" height="407" viewBox="0 0 815 407" fill="none" xmlns="http://www.w3.org/2000/svg">
<g filter="url(#filter0_d_1016_128)">
<path d="M200.613 50.501H159.93L164.705 27.39H272.238L267.272 50.501H226.78L202.905 163H176.547L200.613 50.501ZM285.03 164.91C276.499 164.91 269.177 163.127 263.065 159.562C256.953 155.869 252.242 150.84 248.931 144.473C245.748 138.106 244.156 130.785 244.156 122.508C244.156 114.231 245.748 106.4 248.931 99.015C252.114 91.6297 256.571 85.1357 262.301 79.533C268.031 73.803 274.716 69.3463 282.356 66.163C289.996 62.8523 298.273 61.197 307.186 61.197C318.009 61.197 326.668 63.6163 333.162 68.455C339.656 73.1663 342.903 80.0423 342.903 89.083C342.903 110.602 323.676 121.362 285.221 121.362C282.929 121.362 280.446 121.362 277.772 121.362C275.225 121.235 272.551 121.107 269.75 120.98C269.623 121.744 269.559 122.572 269.559 123.463C269.559 130.084 271.151 135.56 274.334 139.889C277.645 144.091 282.738 146.192 289.614 146.192C294.707 146.192 299.482 144.982 303.939 142.563C308.523 140.144 312.152 136.769 314.826 132.44L335.072 138.743C331.634 143.964 327.241 148.548 321.893 152.495C316.672 156.315 310.879 159.371 304.512 161.663C298.145 163.828 291.651 164.91 285.03 164.91ZM303.557 79.724C296.426 79.724 290.187 82.0797 284.839 86.791C279.491 91.5023 275.48 97.487 272.806 104.745C274.971 104.872 277.072 105 279.109 105.127C281.274 105.127 283.375 105.127 285.412 105.127C297.763 105.127 306.358 103.854 311.197 101.307C316.163 98.7603 318.646 95.2587 318.646 90.802C318.646 87.1093 317.245 84.3717 314.444 82.589C311.643 80.679 308.014 79.724 303.557 79.724ZM390.038 164.91C381.125 164.91 373.612 163 367.5 159.18C361.388 155.36 356.804 150.267 353.748 143.9C350.692 137.406 349.164 130.339 349.164 122.699C349.164 114.804 350.692 107.228 353.748 99.97C356.804 92.5847 361.07 85.9633 366.545 80.106C372.148 74.2487 378.769 69.6647 386.409 66.354C394.049 62.916 402.453 61.197 411.621 61.197C422.317 61.197 430.785 63.5527 437.024 68.264C443.391 72.9753 447.593 79.151 449.63 86.791L423.272 94.431C420.598 86.791 415.187 82.971 407.037 82.971C401.689 82.971 396.596 84.6263 391.757 87.937C387.046 91.1203 383.162 95.5133 380.106 101.116C377.178 106.591 375.713 112.767 375.713 119.643C375.713 126.646 377.369 132.313 380.679 136.642C384.117 140.971 388.638 143.136 394.24 143.136C398.315 143.136 402.326 142.054 406.273 139.889C410.348 137.597 413.468 134.732 415.632 131.294L438.934 138.934C433.968 146.447 427.156 152.686 418.497 157.652C409.966 162.491 400.48 164.91 390.038 164.91ZM478.661 23.57H504.255L491.84 81.443C496.806 75.0763 502.599 70.1103 509.221 66.545C515.969 62.9797 522.909 61.197 530.04 61.197C538.953 61.197 545.065 63.489 548.376 68.073C551.814 72.5297 553.533 78.0687 553.533 84.69C553.533 89.656 552.896 94.9403 551.623 100.543L538.444 163H512.85L524.692 106.846C525.456 103.153 525.838 100.034 525.838 97.487C525.838 92.7757 524.819 89.3377 522.782 87.173C520.744 84.881 517.879 83.735 514.187 83.735C511.385 83.735 508.266 84.6263 504.828 86.409C501.39 88.1917 498.079 90.6747 494.896 93.858C491.712 96.914 489.102 100.479 487.065 104.554L474.65 163H449.056L478.661 23.57ZM178.839 218.39H263.834L261.351 230.232H189.535L179.03 279.128H241.678L239.386 290.397H176.738L165.66 342.158H239.195L236.712 354H149.998L178.839 218.39ZM293.636 304.531L268.233 254.489H282.176L301.658 293.453L302.422 296.318L304.523 293.644L340.813 254.489H354.756L308.152 304.531L333.555 354H319.612L300.13 315.227L298.984 312.553L297.074 315.036L261.166 354H247.032L293.636 304.531ZM371.458 254.489H382.918L378.907 273.78C384 267.541 390.048 262.511 397.052 258.691C404.182 254.744 411.313 252.77 418.444 252.77C425.829 252.77 432.132 254.744 437.353 258.691C442.701 262.511 446.775 267.604 449.577 273.971C452.378 280.338 453.779 287.214 453.779 294.599C453.779 302.366 452.314 309.943 449.386 317.328C446.457 324.586 442.446 331.144 437.353 337.001C432.259 342.731 426.402 347.315 419.781 350.753C413.159 354.191 406.092 355.91 398.58 355.91C390.685 355.91 384.127 353.745 378.907 349.416C373.686 345.087 369.93 339.739 367.638 333.372L354.65 394.683H341.662L371.458 254.489ZM397.434 344.45C403.164 344.45 408.575 343.049 413.669 340.248C418.889 337.447 423.473 333.754 427.421 329.17C431.368 324.459 434.488 319.302 436.78 313.699C439.072 307.969 440.218 302.303 440.218 296.7C440.218 290.715 439.072 285.304 436.78 280.465C434.615 275.499 431.495 271.552 427.421 268.623C423.346 265.694 418.507 264.23 412.905 264.23C408.83 264.23 404.31 265.376 399.344 267.668C394.378 269.833 389.794 272.825 385.592 276.645C381.517 280.338 378.652 284.412 376.997 288.869L370.503 319.429C371.903 326.432 374.959 332.353 379.671 337.192C384.509 342.031 390.43 344.45 397.434 344.45ZM484.486 254.489H496.71L491.553 278.364C496.519 271.233 502.186 265.503 508.552 261.174C514.919 256.845 521.286 254.553 527.652 254.298C528.544 254.298 529.371 254.362 530.135 254.489C530.899 254.489 531.6 254.553 532.236 254.68L529.753 265.949C521.477 266.204 513.709 268.623 506.451 273.207C499.321 277.791 493.654 284.094 489.452 292.116L476.464 354H463.476L484.486 254.489ZM568.168 355.91C560.019 355.91 553.079 354.064 547.349 350.371C541.619 346.551 537.226 341.458 534.17 335.091C531.114 328.724 529.523 321.594 529.395 313.699C529.395 305.932 530.796 298.419 533.597 291.161C536.526 283.776 540.601 277.218 545.821 271.488C551.169 265.758 557.409 261.238 564.539 257.927C571.67 254.489 579.437 252.77 587.841 252.77C597.264 252.77 605.031 255.062 611.143 259.646C617.383 264.103 620.566 270.788 620.693 279.701C620.821 289.888 616.491 297.337 607.705 302.048C599.047 306.759 585.74 309.115 567.786 309.115C564.348 309.115 560.592 309.051 556.517 308.924C552.443 308.797 547.859 308.542 542.765 308.16C542.638 309.815 542.574 311.471 542.574 313.126C542.702 319.111 543.784 324.586 545.821 329.552C547.859 334.518 550.915 338.529 554.989 341.585C559.064 344.514 564.221 345.978 570.46 345.978C577.082 345.978 583.257 344.323 588.987 341.012C594.845 337.574 599.429 333.054 602.739 327.451L613.435 330.698C608.979 338.083 602.676 344.132 594.526 348.843C586.504 353.554 577.718 355.91 568.168 355.91ZM586.886 262.893C579.756 262.893 573.325 264.548 567.595 267.859C561.865 271.042 556.963 275.372 552.888 280.847C548.941 286.322 546.14 292.371 544.484 298.992C549.45 299.247 553.78 299.438 557.472 299.565C561.292 299.692 564.921 299.756 568.359 299.756C583.512 299.756 594.081 297.973 600.065 294.408C606.05 290.715 608.979 285.813 608.851 279.701C608.724 273.844 606.496 269.578 602.166 266.904C597.964 264.23 592.871 262.893 586.886 262.893ZM660.069 355.91C652.302 355.91 645.171 354.637 638.677 352.09C632.183 349.543 626.899 345.851 622.824 341.012L630.464 332.226C638.995 341.139 649.246 345.596 661.215 345.596C669.746 345.596 676.686 343.75 682.034 340.057C687.509 336.237 690.247 331.144 690.247 324.777C690.247 319.938 688.146 316.564 683.944 314.654C679.869 312.617 673.885 310.516 665.99 308.351C659.878 306.568 654.785 304.913 650.71 303.385C646.763 301.73 643.77 299.692 641.733 297.273C639.823 294.726 638.868 291.225 638.868 286.768C638.868 279.765 640.714 273.78 644.407 268.814C648.227 263.721 653.32 259.773 659.687 256.972C666.054 254.171 673.184 252.77 681.079 252.77C688.464 252.77 694.831 254.043 700.179 256.59C705.654 259.137 709.856 262.384 712.785 266.331L704.763 273.971C702.089 270.151 698.651 267.35 694.449 265.567C690.247 263.784 685.408 262.893 679.933 262.893C674.967 262.893 670.319 263.657 665.99 265.185C661.661 266.713 658.159 269.005 655.485 272.061C652.938 275.117 651.665 279.001 651.665 283.712C651.665 288.041 653.193 291.034 656.249 292.689C659.432 294.344 664.589 296.127 671.72 298.037C678.469 299.947 684.199 301.921 688.91 303.958C693.621 305.868 697.187 308.287 699.606 311.216C702.153 314.145 703.426 318.028 703.426 322.867C703.426 329.361 701.58 335.091 697.887 340.057C694.322 345.023 689.292 348.907 682.798 351.708C676.304 354.509 668.728 355.91 660.069 355.91ZM749.414 355.91C741.646 355.91 734.516 354.637 728.022 352.09C721.528 349.543 716.243 345.851 712.169 341.012L719.809 332.226C728.34 341.139 738.59 345.596 750.56 345.596C759.091 345.596 766.031 343.75 771.379 340.057C776.854 336.237 779.592 331.144 779.592 324.777C779.592 319.938 777.491 316.564 773.289 314.654C769.214 312.617 763.229 310.516 755.335 308.351C749.223 306.568 744.129 304.913 740.055 303.385C736.107 301.73 733.115 299.692 731.078 297.273C729.168 294.726 728.213 291.225 728.213 286.768C728.213 279.765 730.059 273.78 733.752 268.814C737.572 263.721 742.665 259.773 749.032 256.972C755.398 254.171 762.529 252.77 770.424 252.77C777.809 252.77 784.176 254.043 789.524 256.59C794.999 259.137 799.201 262.384 802.13 266.331L794.108 273.971C791.434 270.151 787.996 267.35 783.794 265.567C779.592 263.784 774.753 262.893 769.278 262.893C764.312 262.893 759.664 263.657 755.335 265.185C751.005 266.713 747.504 269.005 744.83 272.061C742.283 275.117 741.01 279.001 741.01 283.712C741.01 288.041 742.538 291.034 745.594 292.689C748.777 294.344 753.934 296.127 761.065 298.037C767.813 299.947 773.543 301.921 778.255 303.958C782.966 305.868 786.531 308.287 788.951 311.216C791.497 314.145 792.771 318.028 792.771 322.867C792.771 329.361 790.924 335.091 787.232 340.057C783.666 345.023 778.637 348.907 772.143 351.708C765.649 354.509 758.072 355.91 749.414 355.91Z" fill="white"/>
<rect x="71.9507" y="76.2178" width="73.4615" height="16.5288" rx="8.26442" fill="white"/>
<rect x="41.6499" y="111.112" width="95.5" height="16.5288" rx="8.26442" fill="white"/>
<rect x="4" y="146.008" width="124.885" height="16.5288" rx="8.26442" fill="white"/>
</g>
<defs>
<filter id="filter0_d_1016_128" x="0" y="19.5703" width="814.13" height="387.112" filterUnits="userSpaceOnUse" color-interpolation-filters="sRGB">
<feFlood flood-opacity="0" result="BackgroundImageFix"/>
<feColorMatrix in="SourceAlpha" type="matrix" values="0 0 0 0 0 0 0 0 0 0 0 0 0 0 0 0 0 0 127 0" result="hardAlpha"/>
<feOffset dx="4" dy="4"/>
<feGaussianBlur stdDeviation="4"/>
<feComposite in2="hardAlpha" operator="out"/>
<feColorMatrix type="matrix" values="0 0 0 0 0 0 0 0 0 0 0 0 0 0 0 0 0 0 0.12 0"/>
<feBlend mode="normal" in2="BackgroundImageFix" result="effect1_dropShadow_1016_128"/>
<feBlend mode="normal" in="SourceGraphic" in2="effect1_dropShadow_1016_128" result="shape"/>
</filter>
</defs>
</svg>
